<svg width="288" height="100" viewBox="0 0 288 100" fill="none" xmlns="http://www.w3.org/2000/svg">
<path d="M100 50C100 77.6142 77.6142 100 50 100C22.3858 100 0 77.6142 0 50C0 22.3858 22.3858 0 50 0C77.6142 0 100 22.3858 100 50ZM17.5 50C17.5 67.9493 32.0507 82.5 50 82.5C67.9493 82.5 82.5 67.9493 82.5 50C82.5 32.0507 67.9493 17.5 50 17.5C32.0507 17.5 17.5 32.0507 17.5 50Z" fill="#595652" fill-opacity="0.5"/>
<path d="M155 50C155 77.6142 132.614 100 105 100C77.3858 100 55 77.6142 55 50C55 22.3858 77.3858 0 105 0C132.614 0 155 22.3858 155 50ZM72.5 50C72.5 67.9493 87.0507 82.5 105 82.5C122.949 82.5 137.5 67.9493 137.5 50C137.5 32.0507 122.949 17.5 105 17.5C87.0507 17.5 72.5 32.0507 72.5 50Z" fill="#595652" fill-opacity="0.5"/>
<path d="M174.854 58.22C172.757 58.22 171.114 57.714 169.926 56.702C168.753 55.6753 168.129 54.194 168.056 52.258C168.041 51.862 168.034 51.2167 168.034 50.322C168.034 49.4127 168.041 48.7527 168.056 48.342C168.129 46.4353 168.767 44.9687 169.97 43.942C171.173 42.9007 172.801 42.38 174.854 42.38C176.145 42.38 177.303 42.6 178.33 43.04C179.357 43.4653 180.163 44.0813 180.75 44.888C181.351 45.68 181.659 46.6113 181.674 47.682V47.726C181.674 47.8433 181.623 47.946 181.52 48.034C181.432 48.1073 181.329 48.144 181.212 48.144H178.242C178.051 48.144 177.905 48.1073 177.802 48.034C177.699 47.946 177.611 47.792 177.538 47.572C177.333 46.824 177.01 46.3033 176.57 46.01C176.13 45.702 175.551 45.548 174.832 45.548C173.101 45.548 172.207 46.516 172.148 48.452C172.133 48.848 172.126 49.4567 172.126 50.278C172.126 51.0993 172.133 51.7227 172.148 52.148C172.207 54.084 173.101 55.052 174.832 55.052C175.551 55.052 176.137 54.898 176.592 54.59C177.047 54.2673 177.362 53.7467 177.538 53.028C177.597 52.808 177.677 52.6613 177.78 52.588C177.883 52.5 178.037 52.456 178.242 52.456H181.212C181.344 52.456 181.454 52.5 181.542 52.588C181.645 52.676 181.689 52.786 181.674 52.918C181.659 53.9887 181.351 54.9273 180.75 55.734C180.163 56.526 179.357 57.142 178.33 57.582C177.303 58.0073 176.145 58.22 174.854 58.22ZM185.879 62.18C185.747 62.18 185.637 62.136 185.549 62.048C185.461 61.96 185.417 61.85 185.417 61.718C185.417 61.6153 185.439 61.52 185.483 61.432L187.199 57.296L182.975 47.308C182.931 47.1907 182.909 47.1027 182.909 47.044C182.939 46.912 182.997 46.802 183.085 46.714C183.173 46.6113 183.283 46.56 183.415 46.56H185.923C186.231 46.56 186.444 46.714 186.561 47.022L189.069 53.424L191.643 47.022C191.79 46.714 192.01 46.56 192.303 46.56H194.767C194.899 46.56 195.009 46.6113 195.097 46.714C195.2 46.802 195.251 46.9047 195.251 47.022C195.251 47.0807 195.229 47.176 195.185 47.308L188.959 61.718C188.842 62.026 188.622 62.18 188.299 62.18H185.879ZM201.701 58.22C200.043 58.22 198.701 57.78 197.675 56.9C196.648 56.0053 196.098 54.766 196.025 53.182L196.003 52.302L196.025 51.4C196.083 49.816 196.626 48.5767 197.653 47.682C198.694 46.7873 200.043 46.34 201.701 46.34C202.947 46.34 203.996 46.5673 204.847 47.022C205.712 47.462 206.35 47.9973 206.761 48.628C207.186 49.244 207.413 49.8087 207.443 50.322C207.457 50.4687 207.406 50.6007 207.289 50.718C207.186 50.8207 207.054 50.872 206.893 50.872H204.099C203.937 50.872 203.813 50.8353 203.725 50.762C203.637 50.6887 203.556 50.5787 203.483 50.432C203.307 49.9773 203.079 49.6547 202.801 49.464C202.537 49.2733 202.192 49.178 201.767 49.178C200.564 49.178 199.941 49.9553 199.897 51.51L199.875 52.346L199.897 53.072C199.926 53.864 200.095 54.4507 200.403 54.832C200.725 55.1987 201.18 55.382 201.767 55.382C202.221 55.382 202.581 55.2867 202.845 55.096C203.109 54.9053 203.321 54.5827 203.483 54.128C203.556 53.9813 203.637 53.8713 203.725 53.798C203.813 53.7247 203.937 53.688 204.099 53.688H206.893C207.039 53.688 207.164 53.7393 207.267 53.842C207.384 53.93 207.443 54.0473 207.443 54.194C207.443 54.6633 207.237 55.2133 206.827 55.844C206.431 56.4747 205.8 57.032 204.935 57.516C204.069 57.9853 202.991 58.22 201.701 58.22ZM209.969 58C209.822 58 209.69 57.9487 209.573 57.846C209.47 57.7287 209.419 57.5967 209.419 57.45V42.93C209.419 42.7687 209.47 42.6367 209.573 42.534C209.69 42.4313 209.822 42.38 209.969 42.38H212.565C212.726 42.38 212.858 42.4313 212.961 42.534C213.064 42.6367 213.115 42.7687 213.115 42.93V57.45C213.115 57.6113 213.064 57.7433 212.961 57.846C212.858 57.9487 212.726 58 212.565 58H209.969ZM220.994 58.22C219.234 58.22 217.848 57.7433 216.836 56.79C215.824 55.8367 215.296 54.4507 215.252 52.632V51.862C215.311 50.1313 215.846 48.782 216.858 47.814C217.885 46.8313 219.256 46.34 220.972 46.34C222.219 46.34 223.267 46.5967 224.118 47.11C224.983 47.6087 225.629 48.298 226.054 49.178C226.494 50.058 226.714 51.07 226.714 52.214V52.742C226.714 52.8887 226.663 53.0207 226.56 53.138C226.457 53.2407 226.325 53.292 226.164 53.292H219.124V53.446C219.153 54.1353 219.322 54.6927 219.63 55.118C219.938 55.5433 220.385 55.756 220.972 55.756C221.339 55.756 221.639 55.6827 221.874 55.536C222.109 55.3747 222.321 55.184 222.512 54.964C222.644 54.8027 222.747 54.7073 222.82 54.678C222.908 54.634 223.04 54.612 223.216 54.612H225.944C226.076 54.612 226.186 54.656 226.274 54.744C226.377 54.8173 226.428 54.92 226.428 55.052C226.428 55.4333 226.208 55.8733 225.768 56.372C225.343 56.8707 224.719 57.3033 223.898 57.67C223.077 58.0367 222.109 58.22 220.994 58.22ZM222.842 51.114V51.07C222.842 50.3513 222.673 49.7867 222.336 49.376C222.013 48.9507 221.559 48.738 220.972 48.738C220.4 48.738 219.945 48.9507 219.608 49.376C219.285 49.7867 219.124 50.3513 219.124 51.07V51.114H222.842ZM233.485 58.22C232.297 58.22 231.299 58.0513 230.493 57.714C229.701 57.3767 229.114 56.9733 228.733 56.504C228.351 56.0347 228.161 55.6167 228.161 55.25C228.161 55.1033 228.212 54.986 228.315 54.898C228.432 54.7953 228.557 54.744 228.689 54.744H231.197C231.285 54.744 231.365 54.7807 231.439 54.854C231.615 54.9713 231.747 55.0667 231.835 55.14C232.157 55.3747 232.436 55.5507 232.671 55.668C232.92 55.7707 233.221 55.822 233.573 55.822C233.998 55.822 234.343 55.7413 234.607 55.58C234.885 55.404 235.025 55.162 235.025 54.854C235.025 54.6047 234.951 54.4067 234.805 54.26C234.673 54.1133 234.409 53.974 234.013 53.842C233.617 53.6953 233.015 53.5413 232.209 53.38C230.991 53.1307 230.053 52.7273 229.393 52.17C228.747 51.598 228.425 50.8353 228.425 49.882C228.425 49.2807 228.615 48.7087 228.997 48.166C229.378 47.6233 229.943 47.1833 230.691 46.846C231.453 46.5087 232.355 46.34 233.397 46.34C234.438 46.34 235.347 46.5013 236.125 46.824C236.902 47.1467 237.489 47.5427 237.885 48.012C238.295 48.4667 238.501 48.8847 238.501 49.266C238.501 49.398 238.449 49.5153 238.347 49.618C238.259 49.7207 238.149 49.772 238.017 49.772H235.729C235.611 49.772 235.501 49.7353 235.399 49.662C235.208 49.5593 235.039 49.4493 234.893 49.332C234.643 49.1413 234.409 48.9947 234.189 48.892C233.969 48.7893 233.697 48.738 233.375 48.738C232.993 48.738 232.685 48.826 232.451 49.002C232.231 49.178 232.121 49.4053 232.121 49.684C232.121 49.904 232.179 50.0873 232.297 50.234C232.429 50.3807 232.693 50.5273 233.089 50.674C233.499 50.806 234.101 50.9453 234.893 51.092C236.315 51.3413 237.349 51.7813 237.995 52.412C238.655 53.0427 238.985 53.7833 238.985 54.634C238.985 55.7193 238.501 56.592 237.533 57.252C236.565 57.8973 235.215 58.22 233.485 58.22ZM246.412 58C246.266 58 246.134 57.9487 246.016 57.846C245.914 57.7287 245.862 57.5967 245.862 57.45V43.15C245.862 42.9887 245.914 42.8567 246.016 42.754C246.134 42.6513 246.266 42.6 246.412 42.6H248.744C249.111 42.6 249.36 42.7393 249.492 43.018L254.86 51.466V43.15C254.86 42.9887 254.912 42.8567 255.014 42.754C255.132 42.6513 255.264 42.6 255.41 42.6H258.05C258.212 42.6 258.344 42.6513 258.446 42.754C258.549 42.8567 258.6 42.9887 258.6 43.15V57.428C258.6 57.5893 258.549 57.7287 258.446 57.846C258.344 57.9487 258.212 58 258.05 58H255.696C255.374 58 255.132 57.8607 254.97 57.582L249.602 49.442V57.45C249.602 57.5967 249.551 57.7287 249.448 57.846C249.346 57.9487 249.214 58 249.052 58H246.412ZM262.225 58C262.078 58 261.946 57.9487 261.829 57.846C261.726 57.7287 261.675 57.5967 261.675 57.45V43.15C261.675 42.9887 261.726 42.8567 261.829 42.754C261.946 42.6513 262.078 42.6 262.225 42.6H272.345C272.506 42.6 272.638 42.6513 272.741 42.754C272.843 42.8567 272.895 42.9887 272.895 43.15V45.372C272.895 45.5187 272.843 45.6507 272.741 45.768C272.638 45.8707 272.506 45.922 272.345 45.922H265.547V49.156H271.905C272.066 49.156 272.198 49.2147 272.301 49.332C272.403 49.4347 272.455 49.5667 272.455 49.728V51.928C272.455 52.0747 272.403 52.2067 272.301 52.324C272.198 52.4267 272.066 52.478 271.905 52.478H265.547V57.45C265.547 57.6113 265.495 57.7433 265.393 57.846C265.29 57.9487 265.158 58 264.997 58H262.225ZM279.212 58C279.066 58 278.934 57.9487 278.816 57.846C278.714 57.7287 278.662 57.5967 278.662 57.45V46.054H274.746C274.6 46.054 274.468 46.0027 274.35 45.9C274.248 45.7827 274.196 45.6507 274.196 45.504V43.15C274.196 42.9887 274.248 42.8567 274.35 42.754C274.468 42.6513 274.6 42.6 274.746 42.6H286.582C286.744 42.6 286.876 42.6513 286.978 42.754C287.081 42.8567 287.132 42.9887 287.132 43.15V45.504C287.132 45.6653 287.081 45.7973 286.978 45.9C286.876 46.0027 286.744 46.054 286.582 46.054H282.666V57.45C282.666 57.5967 282.615 57.7287 282.512 57.846C282.41 57.9487 282.278 58 282.116 58H279.212Z" fill="black"/>
</svg>
