<svg width="967" height="2960" viewBox="0 0 967 2960" fill="none" xmlns="http://www.w3.org/2000/svg">
<g clip-path="url(#clip0_2144_7126)">
<rect width="967" height="2960" fill="#B7B3AB"/>
<path d="M465 671C465 793.055 366.055 892 244 892C121.945 892 23 793.055 23 671C23 548.945 121.945 450 244 450C366.055 450 465 548.945 465 671ZM71.62 671C71.62 766.203 148.797 843.38 244 843.38C339.203 843.38 416.38 766.203 416.38 671C416.38 575.797 339.203 498.62 244 498.62C148.797 498.62 71.62 575.797 71.62 671Z" fill="#908D87"/>
<path d="M1028 288C1028 410.055 929.055 509 807 509C684.945 509 586 410.055 586 288C586 165.945 684.945 67 807 67C929.055 67 1028 165.945 1028 288ZM634.62 288C634.62 383.203 711.797 460.38 807 460.38C902.203 460.38 979.38 383.203 979.38 288C979.38 192.797 902.203 115.62 807 115.62C711.797 115.62 634.62 192.797 634.62 288Z" fill="#ADA9A1"/>
<path d="M860 104C860 226.055 761.055 325 639 325C516.945 325 418 226.055 418 104C418 -18.0549 516.945 -117 639 -117C761.055 -117 860 -18.0549 860 104ZM466.62 104C466.62 199.203 543.797 276.38 639 276.38C734.203 276.38 811.38 199.203 811.38 104C811.38 8.79716 734.203 -68.38 639 -68.38C543.797 -68.38 466.62 8.79716 466.62 104Z" fill="#BEBAB3"/>
<path d="M68 165C68 227.408 17.4082 278 -45 278C-107.408 278 -158 227.408 -158 165C-158 102.592 -107.408 52 -45 52C17.4082 52 68 102.592 68 165ZM-133.14 165C-133.14 213.678 -93.6784 253.14 -45 253.14C3.67838 253.14 43.14 213.678 43.14 165C43.14 116.322 3.67838 76.86 -45 76.86C-93.6784 76.86 -133.14 116.322 -133.14 165Z" fill="#B5B1A9"/>
<path d="M292 138C292 178.869 258.869 212 218 212C177.131 212 144 178.869 144 138C144 97.1309 177.131 64 218 64C258.869 64 292 97.1309 292 138ZM169.9 138C169.9 164.565 191.435 186.1 218 186.1C244.565 186.1 266.1 164.565 266.1 138C266.1 111.435 244.565 89.9 218 89.9C191.435 89.9 169.9 111.435 169.9 138Z" fill="#B2AEA6"/>
<path d="M1171 1102C1171 1224.05 1072.05 1323 950 1323C827.945 1323 729 1224.05 729 1102C729 979.945 827.945 881 950 881C1072.05 881 1171 979.945 1171 1102ZM777.62 1102C777.62 1197.2 854.797 1274.38 950 1274.38C1045.2 1274.38 1122.38 1197.2 1122.38 1102C1122.38 1006.8 1045.2 929.62 950 929.62C854.797 929.62 777.62 1006.8 777.62 1102Z" fill="#908D87"/>
<path d="M221 1821C221 1943.05 122.055 2042 0 2042C-122.055 2042 -221 1943.05 -221 1821C-221 1698.95 -122.055 1600 0 1600C122.055 1600 221 1698.95 221 1821ZM-172.38 1821C-172.38 1916.2 -95.2028 1993.38 0 1993.38C95.2029 1993.38 172.38 1916.2 172.38 1821C172.38 1725.8 95.2029 1648.62 0 1648.62C-95.2028 1648.62 -172.38 1725.8 -172.38 1821Z" fill="#B1ADA5"/>
<path d="M1142 2690C1142 2812.05 1043.05 2911 921 2911C798.945 2911 700 2812.05 700 2690C700 2567.95 798.945 2469 921 2469C1043.05 2469 1142 2567.95 1142 2690ZM748.62 2690C748.62 2785.2 825.797 2862.38 921 2862.38C1016.2 2862.38 1093.38 2785.2 1093.38 2690C1093.38 2594.8 1016.2 2517.62 921 2517.62C825.797 2517.62 748.62 2594.8 748.62 2690Z" fill="#8F8C86"/>
</g>
<defs>
<clipPath id="clip0_2144_7126">
<rect width="967" height="2960" fill="white"/>
</clipPath>
</defs>
</svg>
